<?xml version='1.0' encoding='utf-8'?>
<svg xmlns="http://www.w3.org/2000/svg" width="1920" height="1080" viewBox="0 0 1920 1080" data-theme="dark" data-semantic-intent="uncertain_compare" data-relation-type="hypothesis_comparison" data-site-visual-identity="verdant-field">
  <style>
        @font-face {
            font-family: 'Inter';
            src: url('assets/fonts/Inter-Regular.ttf') format('truetype');
            font-weight: 400;
            font-style: normal;
            font-display: swap;
        }
        @font-face {
            font-family: 'Inter';
            src: url('assets/fonts/Inter-Bold.ttf') format('truetype');
            font-weight: 600;
            font-style: normal;
            font-display: swap;
        }
        @font-face {
            font-family: 'Inter';
            src: url('assets/fonts/Inter-Bold.ttf') format('truetype');
            font-weight: 800;
            font-style: normal;
            font-display: swap;
        }
        
:root {
    --background: #0f172a;
    --panel: #1e293b;
    --primary-text: #f1f5f9;
    --muted-text: #94a3b8;
    --inverse-text: #0f172a;
    --border: #334155;
    --shadow-color: #000000;
    --icon-pad-bg: #1e293b;
    --art-glow: #7dd3fc;
    --art-glow-opacity: 0.18;
    --art-sheen: #ffffff;
    --art-sheen-opacity: 0.18;
    --art-shadow: #000000;
    --art-shadow-opacity: 0.28;
    --art-muted-line: #64748b;
    --art-panel-tint: #1e293b;
    --semantic-risk: #f87171;
    --semantic-warning: #fb923c;
    --semantic-uncertain: #fbbf24;
    --semantic-evidence: #60a5fa;
    --semantic-claim: #c084fc;
    --semantic-positive: #4ade80;
    --semantic-outcome: #22d3ee;
    --font-family: 'Inter', 'Segoe UI', 'Kalam', Roboto, Helvetica, Arial, sans-serif;
    --radius-xl: 16px;
    --font-family-headline: 'Segoe UI Variable Display', 'Aptos Display', 'Inter', 'Segoe UI', Helvetica, Arial, sans-serif;
    --font-family-body: 'Segoe UI Variable Text', 'Aptos', 'Inter', 'Segoe UI', Helvetica, Arial, sans-serif;
    --font-heading: var(--font-family-headline);
    --font-body: var(--font-family-body);
    --font-size-h1: 64px;
    --font-size-h2: 42px;
    --font-size-h3: 29px;
    --font-size-body: 21px;
    --font-size-caption: 17px;
    --secondary-text: var(--muted-text);
    --panel-border: var(--border);
    --font-weight-normal: 400;
    --font-weight-medium: 500;
    --font-weight-semibold: 600;
    --font-weight-bold: 700;
    --spacing-gutter-pct: 0.07;
    --spacing-top-pct: 0.15;
    --spacing-bottom-pct: 0.07;
    --spacing-title-y-pct: 0.055;
    --accent-1: #86efac;
    --accent-2: #5eead4;
    --accent-3: #4ade80;
    --accent-4: #2dd4bf;
    --accent-5: #a3e635;
    --accent-6: #fbbf24;
}
:root[data-theme="dark"] {
    --background: #0f172a;
    --panel: #1e293b;
    --primary-text: #f1f5f9;
    --muted-text: #94a3b8;
    --inverse-text: #0f172a;
    --border: #334155;
    --shadow-color: #000000;
    --icon-pad-bg: #1e293b;
    --art-glow: #7dd3fc;
    --art-glow-opacity: 0.18;
    --art-sheen: #ffffff;
    --art-sheen-opacity: 0.18;
    --art-shadow: #000000;
    --art-shadow-opacity: 0.28;
    --art-muted-line: #64748b;
    --art-panel-tint: #1e293b;
    --semantic-risk: #f87171;
    --semantic-warning: #fb923c;
    --semantic-uncertain: #fbbf24;
    --semantic-evidence: #60a5fa;
    --semantic-claim: #c084fc;
    --semantic-positive: #4ade80;
    --semantic-outcome: #22d3ee;
    --accent-1: #86efac;
    --accent-2: #5eead4;
    --accent-3: #4ade80;
    --accent-4: #2dd4bf;
    --accent-5: #a3e635;
    --accent-6: #fbbf24;
}
:root[data-theme="light"] {
    --background: #f8fafc;
    --panel: #ffffff;
    --primary-text: #0f172a;
    --muted-text: #64748b;
    --inverse-text: #ffffff;
    --border: #e2e8f0;
    --shadow-color: #000000;
    --icon-pad-bg: #1e293b;
    --art-glow: #0891b2;
    --art-glow-opacity: 0.10;
    --art-sheen: #ffffff;
    --art-sheen-opacity: 0.34;
    --art-shadow: #0f172a;
    --art-shadow-opacity: 0.14;
    --art-muted-line: #94a3b8;
    --art-panel-tint: #f1f5f9;
    --semantic-risk: #b91c1c;
    --semantic-warning: #c2410c;
    --semantic-uncertain: #a16207;
    --semantic-evidence: #1d4ed8;
    --semantic-claim: #6d28d9;
    --semantic-positive: #15803d;
    --semantic-outcome: #0e7490;
    --accent-1: #15803d;
    --accent-2: #0f766e;
    --accent-3: #166534;
    --accent-4: #0d9488;
    --accent-5: #4d7c0f;
    --accent-6: #a16207;
}</style>
  <rect x="0" y="0" width="1.92E+3" height="1.08E+3" fill="#0f172a" stroke="none" id="programmatic_background"/>
  <line id="HEADER_DECOR" x1="960.0" x2="1080.0" y1="135.0" y2="135.0" stroke="var(--accent-1)" stroke-width="6" stroke-linecap="round"/>
  <defs>
    <filter id="svg87a952cc-force-white" x="-20%" y="-20%" width="140%" height="140%">
      <feColorMatrix type="matrix" values="0 0 0 0 1                                            0 0 0 0 1                                            0 0 0 0 1                                            0 0 0 1 0"/>
    </filter>
    <pattern id="svg87a952cc-napkin-hatch" patternUnits="userSpaceOnUse" width="12" height="12">
      <path d="M -3 12 L 12 -3 M 0 15 L 15 0" fill="none" stroke="var(--primary-text)" stroke-width="1" stroke-opacity="0.05"/>
    </pattern>
    <radialGradient id="svg87a952cc-universal-edge-vignette" cx="50%" cy="50%" r="72%">
      <stop offset="0%" stop-color="var(--background)" stop-opacity="0"/>
      <stop offset="72%" stop-color="var(--background)" stop-opacity="0.12"/>
      <stop offset="100%" stop-color="var(--primary-text)" stop-opacity="0.08"/>
    </radialGradient>
    <linearGradient id="svg87a952cc-universal-surface-sheen" x1="0%" y1="0%" x2="100%" y2="100%">
      <stop offset="0%" stop-color="var(--art-sheen)" stop-opacity="var(--art-sheen-opacity)"/>
      <stop offset="46%" stop-color="var(--art-sheen)" stop-opacity="0.035"/>
      <stop offset="100%" stop-color="var(--art-panel-tint)" stop-opacity="0.14"/>
    </linearGradient>
    <radialGradient id="svg87a952cc-universal-icon-aura" cx="50%" cy="42%" r="64%">
      <stop offset="0%" stop-color="var(--art-glow)" stop-opacity="var(--art-glow-opacity)"/>
      <stop offset="100%" stop-color="var(--background)" stop-opacity="0"/>
    </radialGradient>
    <linearGradient id="svg87a952cc-comparison-card-depth" x1="0%" y1="0%" x2="0%" y2="100%">
      <stop offset="0%" stop-color="var(--art-sheen)" stop-opacity="0.30"/>
      <stop offset="55%" stop-color="var(--art-sheen)" stop-opacity="0.035"/>
      <stop offset="100%" stop-color="var(--art-shadow)" stop-opacity="0.10"/>
    </linearGradient>
    <filter id="svg87a952cc-text-glow" x="-20%" y="-20%" width="140%" height="140%">
      <feDropShadow dx="0" dy="0" stdDeviation="2" flood-color="#000000" flood-opacity="0.4"/>
    </filter>
    <filter id="svg87a952cc-shadow" x="-30%" y="-30%" width="160%" height="160%">
      <feDropShadow dx="0" dy="2" stdDeviation="3" flood-color="#000000" flood-opacity="0.08"/>
      <feDropShadow dx="0" dy="6" stdDeviation="10" flood-color="#000000" flood-opacity="0.12"/>
    </filter>
    <marker id="svg87a952cc-arrowhead" markerWidth="10" markerHeight="7" refX="9" refY="3.5" orient="auto" markerUnits="strokeWidth">
      <polygon points="0 0, 10 3.5, 0 7" fill="var(--muted-text)" opacity="0.6"/>
    </marker>
  </defs>
  <rect width="100%" height="100%" fill="var(--background)" id="CANVAS_BG"/>
  <rect width="100%" height="100%" fill="url(#svg87a952cc-napkin-hatch)"/>
  <rect id="UNIVERSAL_EDGE_VIGNETTE" width="100%" height="100%" fill="url(#svg87a952cc-universal-edge-vignette)" opacity="0.62"/>
  <text id="TITLE" x="960.0" y="59" font-size="63" font-weight="700" fill="#f1f5f9" style="font-size: 69px; font-family: 'Segoe UI Variable Display', 'Aptos Display', 'Inter', 'Segoe UI', Helvetica, Arial, sans-serif; font-weight: 800; font-kerning: normal; font-feature-settings: &quot;kern&quot; 1, &quot;liga&quot; 1; letter-spacing:-1.2px;" text-anchor="middle" data-final-font-size="69">
    <tspan x="960.0" dy="70.47px">Interpreting Habitual Misses: Data vs. Failure</tspan>
  </text>
  <rect id="TITLE_FRAME" x="134" y="59" width="1652" height="103" fill="none"/>
  <g transform="translate(255.0, 630.0)">
    <rect id="CARD_1_BG" x="-225" y="-330" width="450" height="660" rx="18" fill="var(--semantic-uncertain)" stroke="var(--accent-1)" stroke-width="2" fill-opacity="0.4"/>
    <circle cy="-180" r="50" fill="var(--background)" stroke="var(--accent-1)" stroke-width="2" id="ITEM_1_BADGE"/>
    <rect id="ITEM_1_TEXT_BG" x="-213.0" y="-106.0" width="426.0" height="350.8" rx="22" fill="var(--panel)" fill-opacity="0.94" stroke="var(--primary-text)" stroke-opacity="0.12" stroke-width="1.5"/>
    <rect id="COMPARISON_COLUMNS_ART_PANEL_SHEEN_1" x="-213.0" y="-106.0" width="426.0" height="350.8" rx="16" fill="var(--semantic-uncertain)" opacity="0.82" fill-opacity="0.15" stroke="none"/>
    <text id="ITEM_1_HEAD" data-bg-id="ITEM_1_TEXT_BG" text-anchor="middle" font-weight="bold" font-size="36" fill="var(--primary-text)" x="0.0" y="-90.0" fill-opacity="1.0" stroke="none" style="font-size: 31px; font-family: 'Segoe UI Variable Display', 'Aptos Display', 'Inter', 'Segoe UI', Helvetica, Arial, sans-serif; font-weight: 700; font-kerning: normal; font-feature-settings: &quot;kern&quot; 1, &quot;liga&quot; 1; letter-spacing:-0.4px;" data-final-font-size="31">
      <tspan x="0.0" dy="34.40px">Isolated Disruption</tspan>
    </text>
    <rect id="ITEM_1_HEAD_FRAME" x="-195" y="-90" width="390" height="51.75" fill="none"/>
    <text id="ITEM_1_BODY" data-bg-id="ITEM_1_TEXT_BG" text-anchor="middle" font-size="21" x="0.0" y="-30.0" fill="var(--primary-text)" font-weight="700" opacity="1" style="font-size: 23px; font-family: 'Segoe UI Variable Text', 'Aptos', 'Inter', 'Segoe UI', Helvetica, Arial, sans-serif; font-weight: 400; font-kerning: normal; font-feature-settings: &quot;kern&quot; 1, &quot;liga&quot; 1;" data-max-lines="20" data-final-font-size="23">
      <tspan x="0.0" dy="59.58px">One-off misses due to illness</tspan>
      <tspan x="0.0" dy="26.45px">or emergencies are exceptions</tspan>
    </text>
    <rect id="ITEM_1_BODY_FRAME" x="-190" y="-30" width="380" height="258.8" fill="none"/>
    <circle id="ITEM_1_PAD" cx="0.0" cy="-180.0" r="58" fill="var(--icon-pad-bg)" stroke="var(--semantic-uncertain)" opacity="1" fill-opacity="0.9" stroke-width="2" stroke-opacity="0.72" data-badge-layer="pad"/>
    <circle cx="0.0" cy="-180.0" r="46.4" fill="none" stroke="var(--accent-1)" stroke-width="3" stroke-dasharray="6 4" display="none" data-suppressed-decoration="redundant-badge-ring"/>
    <g id="ITEM_1_ICON" transform="translate(-45.0, -225.0)" data-icon-size="90" stroke-linecap="round" stroke-linejoin="round" data-badge-treatment="clean">
      <g transform="translate(-4.073898305084748,-4.07389830508475) scale(4.089491525423729)" vector-effect="non-scaling-stroke" stroke-width="2.79" stroke-linecap="round" stroke-linejoin="round" stroke-opacity="1.0">
        <path d="M10 10.01h.01" vector-effect="non-scaling-stroke" fill="none" stroke="#f1f5f9"/>
        <path d="M10 14.01h.01" vector-effect="non-scaling-stroke" fill="none" stroke="#f1f5f9"/>
        <path d="M14 10.01h.01" vector-effect="non-scaling-stroke" fill="none" stroke="#f1f5f9"/>
        <path d="M14 14.01h.01" vector-effect="non-scaling-stroke" fill="none" stroke="#f1f5f9"/>
        <path d="M18 6v11.5" vector-effect="non-scaling-stroke" fill="none" stroke="#f1f5f9"/>
        <path d="M6 6v12" vector-effect="non-scaling-stroke" fill="none" stroke="#f1f5f9"/>
        <rect x="2" y="6" width="20" height="12" rx="2" vector-effect="non-scaling-stroke" fill="none" stroke="#f1f5f9"/>
      </g>
    </g>
  </g>
  <g transform="translate(726.0, 630.0)">
    <rect id="CARD_2_BG" x="-225" y="-330" width="450" height="660" rx="18" fill="var(--semantic-uncertain)" stroke="var(--accent-2)" stroke-width="2" fill-opacity="0.4"/>
    <circle cy="-180" r="50" fill="var(--background)" stroke="var(--accent-2)" stroke-width="2" id="ITEM_2_BADGE"/>
    <rect id="ITEM_2_TEXT_BG" x="-213.0" y="-106.0" width="426.0" height="350.8" rx="22" fill="var(--panel)" fill-opacity="0.94" stroke="var(--primary-text)" stroke-opacity="0.12" stroke-width="1.5"/>
    <rect id="COMPARISON_COLUMNS_ART_PANEL_SHEEN_2" x="-213.0" y="-106.0" width="426.0" height="350.8" rx="16" fill="var(--semantic-uncertain)" opacity="0.82" fill-opacity="0.15" stroke="none"/>
    <text id="ITEM_2_HEAD" data-bg-id="ITEM_2_TEXT_BG" text-anchor="middle" font-weight="bold" font-size="36" fill="var(--primary-text)" x="0.0" y="-90.0" fill-opacity="1.0" stroke="none" style="font-size: 31px; font-family: 'Segoe UI Variable Display', 'Aptos Display', 'Inter', 'Segoe UI', Helvetica, Arial, sans-serif; font-weight: 700; font-kerning: normal; font-feature-settings: &quot;kern&quot; 1, &quot;liga&quot; 1; letter-spacing:-0.4px;" data-final-font-size="31">
      <tspan x="0.0" dy="34.40px">Situational Recurrence</tspan>
    </text>
    <rect id="ITEM_2_HEAD_FRAME" x="-195" y="-90" width="390" height="51.75" fill="none"/>
    <text id="ITEM_2_BODY" data-bg-id="ITEM_2_TEXT_BG" text-anchor="middle" font-size="21" x="0.0" y="-30.0" fill="var(--primary-text)" font-weight="700" opacity="1" style="font-size: 23px; font-family: 'Segoe UI Variable Text', 'Aptos', 'Inter', 'Segoe UI', Helvetica, Arial, sans-serif; font-weight: 400; font-kerning: normal; font-feature-settings: &quot;kern&quot; 1, &quot;liga&quot; 1;" data-max-lines="20" data-final-font-size="23">
      <tspan x="0.0" dy="59.58px">Repeated misses under specific</tspan>
      <tspan x="0.0" dy="26.45px">conditions indicate design flaws</tspan>
    </text>
    <rect id="ITEM_2_BODY_FRAME" x="-190" y="-30" width="380" height="258.8" fill="none"/>
    <circle id="ITEM_2_PAD" cx="0.0" cy="-180.0" r="58" fill="var(--icon-pad-bg)" stroke="var(--semantic-uncertain)" opacity="1" fill-opacity="0.9" stroke-width="2" stroke-opacity="0.72" data-badge-layer="pad"/>
    <circle cx="0.0" cy="-180.0" r="46.4" fill="none" stroke="var(--accent-1)" stroke-width="3" stroke-dasharray="6 4" display="none" data-suppressed-decoration="redundant-badge-ring"/>
    <g id="ITEM_2_ICON" transform="translate(-45.0, -225.0)" data-icon-size="90" stroke-linecap="round" stroke-linejoin="round" data-badge-treatment="clean">
      <g transform="translate(-6.7028571428571455,-6.7028571428571455) scale(3.2314285714285718)">
        <path d="M15.5 28C21.8513 28 27 22.8513 27 16.5C27 10.1487 21.8513 5 15.5 5C9.14873 5 4 10.1487 4 16.5C4 22.8513 9.14873 28 15.5 28Z" fill="#F4F4F4"/>
        <path d="M25.7663 7.73298C26.1431 7.9044 26.5609 8 27 8C28.65 8 30 6.65 30 5C30 3.35 28.65 2 27 2C25.35 2 24 3.35 24 5C24 5.43909 24.0956 5.85693 24.267 6.23373C21.9083 4.21752 18.8463 3 15.5 3C8.04416 3 2 9.04416 2 16.5C2 23.9558 8.04416 30 15.5 30C22.9558 30 29 23.9558 29 16.5C29 13.1537 27.7825 10.0917 25.7663 7.73298ZM25.39 4.99C25.39 4.1 26.11 3.38 27 3.38C27.88 3.38 28.61 4.1 28.61 4.99C28.61 5.88 27.89 6.6 27 6.6C26.11 6.6 25.39 5.88 25.39 4.99ZM26 16.5C26 22.299 21.299 27 15.5 27C9.70101 27 5 22.299 5 16.5C5 10.701 9.70101 6 15.5 6C21.299 6 26 10.701 26 16.5Z" fill="#F9C23C"/>
        <path d="M25.35 7.99994L23.99 6.63994L25.35 5.27994C25.72 4.90994 26.33 4.90994 26.71 5.27994C27.08 5.64994 27.08 6.25994 26.71 6.63994L25.35 7.99994Z" fill="#FFB02E"/>
        <path d="M13.2234 17.724L11.4099 20.21C11.2299 20.45 11.5299 20.75 11.7799 20.58L14.2735 18.7609L15.2099 24.7499C15.2599 25.0799 15.7399 25.0799 15.7899 24.7499L16.8663 17.8663L23.7499 16.7899C24.0799 16.7399 24.0799 16.2599 23.7499 16.2099L17.7609 15.2735L19.5799 12.78C19.7599 12.54 19.4599 12.24 19.2099 12.41L16.724 14.2234L15.7899 8.24994C15.7399 7.91994 15.2599 7.91994 15.2099 8.24994L14.1336 15.1336L7.24994 16.2099C6.91994 16.2599 6.91994 16.7399 7.24994 16.7899L13.2234 17.724Z" fill="#9B9B9B"/>
        <path d="M17.3382 15L20.9393 21.3271C21.1631 21.7255 20.7252 22.1629 20.3261 21.9394L14 18.3336L17.3382 15Z" fill="#9B9B9B"/>
        <path d="M13.6756 18L10.0605 11.672C9.83756 11.2741 10.2737 10.8373 10.6711 11.0606L17 14.671L13.6756 18Z" fill="#E5336D"/>
        <path d="M15.5 19C16.8807 19 18 17.8807 18 16.5C18 15.1193 16.8807 14 15.5 14C14.1193 14 13 15.1193 13 16.5C13 17.8807 14.1193 19 15.5 19Z" fill="#D3D3D3"/>
      </g>
    </g>
  </g>
  <g transform="translate(1194.0, 630.0)">
    <rect id="CARD_3_BG" x="-225" y="-330" width="450" height="660" rx="18" fill="var(--semantic-claim)" stroke="var(--accent-3)" stroke-width="2" fill-opacity="0.4"/>
    <circle cy="-180" r="50" fill="var(--background)" stroke="var(--accent-3)" stroke-width="2" id="ITEM_3_BADGE"/>
    <rect id="ITEM_3_TEXT_BG" x="-213.0" y="-106.0" width="426.0" height="350.8" rx="22" fill="var(--panel)" fill-opacity="0.94" stroke="var(--primary-text)" stroke-opacity="0.12" stroke-width="1.5"/>
    <rect id="COMPARISON_COLUMNS_ART_PANEL_SHEEN_3" x="-213.0" y="-106.0" width="426.0" height="350.8" rx="16" fill="var(--semantic-claim)" opacity="0.82" fill-opacity="0.15" stroke="none"/>
    <text id="ITEM_3_HEAD" data-bg-id="ITEM_3_TEXT_BG" text-anchor="middle" font-weight="bold" font-size="36" fill="var(--primary-text)" x="0.0" y="-90.0" fill-opacity="1.0" stroke="none" style="font-size: 31px; font-family: 'Segoe UI Variable Display', 'Aptos Display', 'Inter', 'Segoe UI', Helvetica, Arial, sans-serif; font-weight: 700; font-kerning: normal; font-feature-settings: &quot;kern&quot; 1, &quot;liga&quot; 1; letter-spacing:-0.4px;" data-final-font-size="31">
      <tspan x="0.0" dy="34.40px">Character Flaw Myth</tspan>
    </text>
    <rect id="ITEM_3_HEAD_FRAME" x="-195" y="-90" width="390" height="51.75" fill="none"/>
    <text id="ITEM_3_BODY" data-bg-id="ITEM_3_TEXT_BG" text-anchor="middle" font-size="21" x="0.0" y="-30.0" fill="var(--primary-text)" font-weight="700" opacity="1" style="font-size: 23px; font-family: 'Segoe UI Variable Text', 'Aptos', 'Inter', 'Segoe UI', Helvetica, Arial, sans-serif; font-weight: 400; font-kerning: normal; font-feature-settings: &quot;kern&quot; 1, &quot;liga&quot; 1;" data-max-lines="20" data-final-font-size="23">
      <tspan x="0.0" dy="54.29px">Weekend misses often reflect</tspan>
      <tspan x="0.0" dy="26.45px">missing cues rather than lack</tspan>
      <tspan x="0.0" dy="26.45px">of discipline</tspan>
    </text>
    <rect id="ITEM_3_BODY_FRAME" x="-190" y="-30" width="380" height="258.8" fill="none"/>
    <circle id="ITEM_3_PAD" cx="0.0" cy="-180.0" r="58" fill="var(--icon-pad-bg)" stroke="var(--semantic-claim)" opacity="1" fill-opacity="0.9" stroke-width="2" stroke-opacity="0.72" data-badge-layer="pad"/>
    <circle cx="0.0" cy="-180.0" r="46.4" fill="none" stroke="var(--accent-2)" stroke-width="3" stroke-dasharray="6 4" display="none" data-suppressed-decoration="redundant-badge-ring"/>
    <g id="ITEM_3_ICON" transform="translate(-45.0, -225.0)" data-icon-size="90" stroke-linecap="round" stroke-linejoin="round" data-badge-treatment="clean">
      <g transform="translate(-5.491071428571432,-6.7028571428571455) scale(3.2314285714285718)">
        <path d="M10.5208 7.52114C10.0012 5.7093 8.1239 4.65179 6.30748 5.15196C6.27354 5.1604 6.20545 5.17748 6.14394 5.19799C3.65095 6.02898 3.45292 9.41201 5.68876 10.6483L10.6585 13.3981C11.0772 13.6298 11.6044 13.4782 11.8361 13.0595C12.0678 12.6408 11.9161 12.1135 11.4974 11.8819L6.52712 9.13168C5.54516 8.58886 5.70443 7.17631 6.68631 6.84385L6.69246 6.84216C6.70347 6.83922 6.7167 6.8359 6.73807 6.83055C6.74577 6.82863 6.75344 6.8266 6.76109 6.82446C7.66072 6.57309 8.59583 7.09488 8.85505 7.99882C8.98695 8.45881 9.46678 8.72477 9.92677 8.59286C10.3868 8.46095 10.6527 7.98112 10.5208 7.52114Z" fill="#D3883E"/>
        <path d="M22.4608 7.99882C22.72 7.09488 23.6552 6.57309 24.5548 6.82446C24.5624 6.8266 24.5701 6.82863 24.5778 6.83055C24.5992 6.8359 24.6124 6.83922 24.6234 6.84216L24.6296 6.84385C25.6114 7.17631 25.7704 8.58902 24.7884 9.13185L19.8184 11.8819C19.3997 12.1135 19.2481 12.6408 19.4798 13.0595C19.7115 13.4782 20.2387 13.6298 20.6574 13.3981L25.6274 10.6481C27.8633 9.41184 27.6649 6.02898 25.1719 5.19799C25.1104 5.17748 25.0423 5.1604 25.0084 5.15196C23.192 4.65179 21.3146 5.7093 20.7951 7.52114C20.6632 7.98112 20.9291 8.46095 21.3891 8.59286C21.8491 8.72477 22.3289 8.45881 22.4608 7.99882Z" fill="#D3883E"/>
        <path d="M17.328 17.51V13.29H13.9879V17.51C13.9879 18.25 13.658 18.96 13.088 19.43L11.168 21.03H20.1479L18.228 19.43C17.658 18.95 17.328 18.25 17.328 17.51Z" fill="#D3883E"/>
        <path d="M15.658 16.54C11.808 16.54 8.68799 13.42 8.68799 9.56999V2.70999C8.68799 2.31999 9.00798 2 9.39798 2H21.928C22.318 2 22.638 2.31999 22.638 2.70999V9.56999C22.638 13.42 19.518 16.54 15.658 16.54Z" fill="#FFB02E"/>
        <path d="M22.7923 21.03H8.19719C7.42737 21.03 6.77355 21.54 6.62592 22.25L5.01245 29.34C4.93863 29.67 5.20226 29.98 5.56081 29.98H25.4392C25.7977 29.98 26.0614 29.67 25.9876 29.34L24.3741 22.25C24.2159 21.54 23.5621 21.03 22.7923 21.03Z" fill="#6D4534"/>
        <path d="M18.383 23.96H12.617C12.2817 23.96 12.004 24.24 12.004 24.6V26.41C12.004 26.76 12.2721 27.05 12.617 27.05H18.383C18.7183 27.05 18.996 26.77 18.996 26.41V24.6C18.996 24.25 18.7278 23.96 18.383 23.96Z" fill="#FFB02E"/>
      </g>
    </g>
  </g>
  <g transform="translate(1665.0, 630.0)">
    <rect id="CARD_4_BG" x="-225" y="-330" width="450" height="660" rx="18" fill="var(--semantic-outcome)" stroke="var(--accent-4)" stroke-width="2" fill-opacity="0.4"/>
    <circle cy="-180" r="50" fill="var(--background)" stroke="var(--accent-4)" stroke-width="2" id="ITEM_4_BADGE"/>
    <rect id="ITEM_4_TEXT_BG" x="-213.0" y="-106.0" width="426.0" height="350.8" rx="22" fill="var(--panel)" fill-opacity="0.94" stroke="var(--primary-text)" stroke-opacity="0.12" stroke-width="1.5"/>
    <rect id="COMPARISON_COLUMNS_ART_PANEL_SHEEN_4" x="-213.0" y="-106.0" width="426.0" height="350.8" rx="16" fill="var(--semantic-outcome)" opacity="0.82" fill-opacity="0.15" stroke="none"/>
    <text id="ITEM_4_HEAD" data-bg-id="ITEM_4_TEXT_BG" text-anchor="middle" font-weight="bold" font-size="36" fill="var(--primary-text)" x="0.0" y="-90.0" fill-opacity="1.0" stroke="none" style="font-size: 31px; font-family: 'Segoe UI Variable Display', 'Aptos Display', 'Inter', 'Segoe UI', Helvetica, Arial, sans-serif; font-weight: 700; font-kerning: normal; font-feature-settings: &quot;kern&quot; 1, &quot;liga&quot; 1; letter-spacing:-0.4px;" data-final-font-size="31">
      <tspan x="0.0" dy="34.40px">Progress Preservation</tspan>
    </text>
    <rect id="ITEM_4_HEAD_FRAME" x="-195" y="-90" width="390" height="51.75" fill="none"/>
    <text id="ITEM_4_BODY" data-bg-id="ITEM_4_TEXT_BG" text-anchor="middle" font-size="21" x="0.0" y="-30.0" fill="var(--primary-text)" font-weight="700" opacity="1" style="font-size: 23px; font-family: 'Segoe UI Variable Text', 'Aptos', 'Inter', 'Segoe UI', Helvetica, Arial, sans-serif; font-weight: 400; font-kerning: normal; font-feature-settings: &quot;kern&quot; 1, &quot;liga&quot; 1;" data-max-lines="20" data-final-font-size="23">
      <tspan x="0.0" dy="59.58px">Keep previous successes while</tspan>
      <tspan x="0.0" dy="26.45px">redesigning the failing components</tspan>
    </text>
    <rect id="ITEM_4_BODY_FRAME" x="-190" y="-30" width="380" height="258.8" fill="none"/>
    <circle id="ITEM_4_PAD" cx="0.0" cy="-180.0" r="58" fill="var(--icon-pad-bg)" stroke="var(--semantic-outcome)" opacity="1" fill-opacity="0.9" stroke-width="2" stroke-opacity="0.72" data-badge-layer="pad"/>
    <circle cx="0.0" cy="-180.0" r="46.4" fill="none" stroke="var(--accent-3)" stroke-width="3" stroke-dasharray="6 4" display="none" data-suppressed-decoration="redundant-badge-ring"/>
    <g id="ITEM_4_ICON" transform="translate(-45.0, -225.0)" data-icon-size="90" stroke-linecap="round" stroke-linejoin="round" data-badge-treatment="clean">
      <g transform="translate(-6.7028571428571455,-6.7028571428571455) scale(3.2314285714285718)">
        <path d="M13.9722 3.06962L7.11285 29.0903C6.97408 29.6301 6.48837 30 5.9432 30H2.85056C2.28556 30 1.88907 29.4702 2.02784 28.9304L8.88715 2.90968C9.02592 2.37986 9.51163 2 10.0667 2H13.1494C13.7144 2 14.1109 2.52981 13.9722 3.06962Z" fill="#7D4533"/>
        <path d="M29.9726 3.06962L23.1187 29.0903C22.9702 29.6301 22.4947 30 21.9401 30H18.8499C18.2853 30 17.8892 29.4702 18.0278 28.9304L18.27 28.0109L17.3715 26.4623L19.0645 24.9947L20.1199 20.9878L19.2154 19.4619L20.9024 18.017L21.9639 13.9871L21.0599 12.4594L22.7474 11.0127L23.8146 6.9612L22.908 5.44292L24.593 4.0057L24.8817 2.90968C25.0204 2.37986 25.5057 2 26.0604 2H29.1506C29.7052 2 30.1113 2.52981 29.9726 3.06962Z" fill="#7D4533"/>
        <path d="M19.0631 25L18.2729 28H5.54632C5.1809 28 4.91163 27.6288 5.02703 27.2575L5.56556 25.4615C5.65211 25.1806 5.89252 25 6.1714 25H19.0631Z" fill="#A56953"/>
        <path d="M20.9069 18L20.1167 21H7.08312C6.69308 21 6.40568 20.6288 6.52885 20.2575L7.10365 18.4615C7.19603 18.1806 7.45263 18 7.7503 18H20.9069Z" fill="#A56953"/>
        <path d="M23.8043 7L24.5945 4H11.24C10.9424 4 10.6858 4.18 10.5934 4.46L10.0289 6.26C9.90568 6.63 10.1931 7 10.5831 7H23.8043Z" fill="#A56953"/>
        <path d="M22.7507 11H9.2503C8.95263 11 8.69603 11.1806 8.60365 11.4615L8.02885 13.2575C7.90568 13.6288 8.19308 14 8.58312 14H21.9605L22.7507 11Z" fill="#A56953"/>
      </g>
    </g>
  </g>
  <text id="SOURCE_NOTE" x="134.0" y="1058.0" fill="var(--muted-text)" opacity="1" style="font-family: var(--font-family); font-size: 20px;">Source: The habitual consumer</text>
  <text id="EDITORIAL_NOTE" x="1786.0" y="1058.0" fill="var(--semantic-uncertain)" opacity="1" style="font-family: var(--font-family); font-size: 20px;" text-anchor="end">Interpretations remain disputed; wording reflects source uncertainty.</text>
</svg>
